<?xml version="1.0" encoding="utf-8"?>
<!-- Svg Vector Icons : http://www.onlinewebfonts.com/icon -->
<!DOCTYPE svg PUBLIC "-//W3C//DTD SVG 1.1//EN" "http://www.w3.org/Graphics/SVG/1.1/DTD/svg11.dtd">
<svg version="1.1" xmlns="http://www.w3.org/2000/svg" xmlns:xlink="http://www.w3.org/1999/xlink" x="0px" y="0px" viewBox="0 0 1000 1000" enable-background="new 0 0 1000 1000" xml:space="preserve">
<metadata> Svg Vector Icons : http://www.onlinewebfonts.com/icon </metadata>
<g><path d="M835.8,140.5c-56.9-9.8-115.5-1.8-172.4,3.8c-56.7,5.6-115.9,12.4-172-0.9c-66.1-15.7-108-59-138.8-117.7c-8.5,23-17,46-25.5,69c-55.6,150.5-111.3,301.1-166.9,451.6L10,952.8l58,21.4l135.2-365.8c25.1,26.8,56.1,46.2,95.8,55.6c56.2,13.3,115.3,6.5,172,0.9c56.9-5.6,115.5-13.6,172.4-3.8c73.1,12.6,120.4,56.4,154.2,120.8C861.7,608.4,925.9,434.8,990,261.3C956.2,196.9,909,153.1,835.8,140.5z M843,449.5c-28.6-24.1-59.3-40.3-96.3-47.4c-12.4,33.4-24.7,66.8-37,100.2c37,7.1,67.7,23.3,96.3,47.4c-11.3,30.6-22.7,61.3-34,91.9c-28.6-24.1-59.3-40.3-96.3-47.4c11.3-30.6,22.6-61.3,34-91.9c-37.7-6.1-74.5-6-112.5-3.7c-11.3,30.6-22.7,61.3-34,91.9c-39.4,3.2-78.6,7.7-117.9,10.9c11.3-30.6,22.6-61.3,34-91.9c-38,2.3-74.9,2.4-112.6-3.7c-11.3,30.6-22.6,61.3-34,91.9c-37-7.1-67.7-23.3-96.3-47.4c11.3-30.6,22.6-61.3,34-91.9c28.6,24.1,59.3,40.3,96.3,47.4c12.3-33.4,24.7-66.8,37-100.2c-37-7.1-67.7-23.3-96.3-47.4c12.4-33.4,24.7-66.8,37-100.2c28.6,24.1,59.3,40.3,96.3,47.4c11.3-30.6,22.6-61.3,34-91.9c37.7,6.1,74.5,6,112.6,3.7c-11.3,30.6-22.6,61.3-34,91.9c39.4-3.2,78.6-7.7,117.9-10.9c11.3-30.6,22.6-61.3,34-91.9c38-2.3,74.8-2.4,112.5,3.7c-11.3,30.6-22.6,61.3-34,91.9c37,7.1,67.7,23.3,96.3,47.4C867.7,382.7,855.3,416.1,843,449.5z"/><path d="M516.1,409.3c-12.3,33.4-24.7,66.8-37,100.2c39.4-3.2,78.6-7.7,117.9-10.9c12.3-33.4,24.7-66.8,37-100.2C594.7,401.6,555.5,406.1,516.1,409.3z"/><path d="M516.1,409.3c12.4-33.4,24.7-66.8,37-100.2c-38,2.3-74.8,2.4-112.6-3.7c-12.3,33.4-24.7,66.8-37,100.2C441.3,411.6,478.1,411.6,516.1,409.3z"/><path d="M671.1,298.2c-12.3,33.4-24.7,66.8-37,100.2c38-2.3,74.8-2.4,112.6,3.7c12.3-33.4,24.7-66.8,37-100.2C746,295.8,709.2,295.8,671.1,298.2z"/></g>
</svg>